<svg width="20" height="20" viewBox="0 0 20 20" fill="none" xmlns="http://www.w3.org/2000/svg">
<path d="M10.3901 3.54917C10.1197 3.81575 10.0944 4.23698 10.316 4.53253L10.3826 4.60981L14.9583 9.24992L3.25 9.24992C2.83579 9.24992 2.5 9.5857 2.5 9.99992C2.5 10.3823 2.78611 10.6978 3.15592 10.7441L3.25 10.7499H14.9583L10.3826 15.39C10.116 15.6604 10.0966 16.082 10.3224 16.3743L10.3901 16.4507C10.6605 16.7172 11.082 16.7366 11.3744 16.5108L11.4507 16.4431L17.2841 10.5265C17.548 10.2588 17.57 9.84232 17.3501 9.54985L17.2841 9.47336L11.4507 3.5567C11.1599 3.26173 10.6851 3.25837 10.3901 3.54917Z" fill="white"/>
</svg>
