<svg width="66" height="66" viewBox="0 0 66 66" fill="none" xmlns="http://www.w3.org/2000/svg">
<path fill-rule="evenodd" clip-rule="evenodd" d="M61.145 19.7333C61.1446 18.6524 60.9169 17.6972 60.4565 16.8775C60.0042 16.0714 59.3269 15.3957 58.4184 14.8615C50.9191 10.4709 43.4126 6.09365 35.9157 1.69853C33.8946 0.513756 31.935 0.556949 29.9289 1.75873C26.9439 3.54619 11.9994 12.24 7.54612 14.8591C5.71213 15.9371 4.81971 17.5869 4.81927 19.7313C4.81641 28.5612 4.81927 37.3908 4.81641 46.2209C4.81685 47.2781 5.03483 48.2147 5.47498 49.0221C5.92747 49.8526 6.61425 50.5468 7.54369 51.0931C11.9972 53.7122 26.9437 62.4053 29.928 64.1932C31.935 65.3957 33.8946 65.4386 35.9164 64.2534C43.4135 59.8581 50.9204 55.4811 58.4208 51.0904C59.3503 50.5444 60.037 49.8497 60.4895 49.0199C60.929 48.2124 61.1474 47.2758 61.1479 46.2184C61.1479 46.2184 61.1479 28.5634 61.145 19.7333Z" fill="#5C8DBC"/>
<path fill-rule="evenodd" clip-rule="evenodd" d="M33.068 32.8901L5.47461 49.0222C5.9271 49.8527 6.61388 50.5469 7.54333 51.0932C11.9968 53.7123 26.9434 62.4054 29.9276 64.1933C31.9346 65.3958 33.8943 65.4387 35.916 64.2535C43.4131 59.8582 50.9201 55.4812 58.4205 51.0905C59.3499 50.5445 60.0367 49.8498 60.4892 49.02L33.068 32.8901Z" fill="#1A4674"/>
<path fill-rule="evenodd" clip-rule="evenodd" d="M24.8955 37.6686C26.5012 40.5149 29.5196 42.4346 32.9822 42.4346C36.4661 42.4346 39.5017 40.4905 41.0992 37.6138L33.0683 32.8901L24.8955 37.6686Z" fill="#1A4674"/>
<path fill-rule="evenodd" clip-rule="evenodd" d="M61.1451 19.7333C61.1446 18.6524 60.9169 17.6972 60.4565 16.8774L33.0684 32.89L60.4896 49.0199C60.9291 48.2124 61.1475 47.2758 61.1479 46.2184C61.1479 46.2184 61.1479 28.5634 61.1451 19.7333Z" fill="#1B598E"/>
<path fill-rule="evenodd" clip-rule="evenodd" d="M59.6375 34.0432H57.4948V36.2193H55.3515V34.0432H53.209V31.8676H55.3515V29.6919H57.4948V31.8676H59.6375V34.0432Z" fill="white"/>
<path fill-rule="evenodd" clip-rule="evenodd" d="M51.8187 34.0432H49.6762V36.2193H47.5334V34.0432H45.3906V31.8676H47.5334V29.6919H49.6762V31.8676H51.8187V34.0432Z" fill="white"/>
<path fill-rule="evenodd" clip-rule="evenodd" d="M41.0993 37.6138C39.5018 40.4905 36.4662 42.4346 32.9822 42.4346C29.5197 42.4346 26.5012 40.5149 24.8956 37.6687C24.1156 36.2856 23.6671 34.6843 23.6671 32.9761C23.6671 27.7525 27.8378 23.5178 32.9822 23.5178C36.4225 23.5178 39.4251 25.4136 41.0387 28.2308L49.1807 23.4702C45.9445 17.7979 39.9025 13.9817 32.9822 13.9817C22.6506 13.9817 14.2754 22.4859 14.2754 32.9761C14.2754 36.4176 15.1771 39.645 16.753 42.4288C19.981 48.1311 26.0402 51.9708 32.9822 51.9708C39.9371 51.9708 46.0057 48.1157 49.2292 42.3966L41.0993 37.6138Z" fill="white"/>
</svg>
