<svg width="66" height="66" viewBox="0 0 66 66" fill="none" xmlns="http://www.w3.org/2000/svg">
<g clip-path="url(#clip0_439_1366)">
<path fill-rule="evenodd" clip-rule="evenodd" d="M0.5 0H65.5V66H0.5V0Z" fill="#F7DF1E"/>
<path fill-rule="evenodd" clip-rule="evenodd" d="M17.5909 55.1543L22.5652 52.0977C23.5248 53.8253 24.3978 55.2871 26.4917 55.2871C28.4989 55.2871 29.7643 54.4898 29.7643 51.3889V30.3003H35.8726V51.4766C35.8726 57.9006 32.1641 60.8246 26.7535 60.8246C21.8671 60.8246 19.0306 58.2549 17.5908 55.1538" fill="black"/>
<path fill-rule="evenodd" clip-rule="evenodd" d="M39.1904 54.4898L44.1641 51.5658C45.4734 53.7369 47.175 55.3317 50.1854 55.3317C52.7164 55.3317 54.3304 54.0468 54.3304 52.2747C54.3304 50.1481 52.6725 49.3948 49.8799 48.1548L48.3533 47.4898C43.9462 45.5851 41.0227 43.1927 41.0227 38.1421C41.0227 33.4902 44.5132 29.9458 49.9674 29.9458C53.8507 29.9458 56.6431 31.3193 58.65 34.908L53.894 38.009C52.8468 36.1041 51.7127 35.3511 49.9675 35.3511C48.1786 35.3511 47.0441 36.503 47.0441 38.009C47.0441 39.8698 48.1786 40.6231 50.7962 41.7751L52.3232 42.4396C57.5155 44.6992 60.4389 47.0027 60.4389 52.186C60.4389 57.7686 56.1194 60.8252 50.3165 60.8252C44.6443 60.8252 40.9792 58.0786 39.1905 54.4898" fill="black"/>
</g>
<defs>
<clipPath id="clip0_439_1366">
<rect width="65" height="66" fill="white" transform="translate(0.5)"/>
</clipPath>
</defs>
</svg>
