<svg width="66" height="66" viewBox="0 0 66 66" fill="none" xmlns="http://www.w3.org/2000/svg">
<ellipse cx="33" cy="32.9285" rx="31.7383" ry="16.9441" fill="url(#paint0_radial_439_1364)"/>
<ellipse cx="33.0005" cy="32.9284" rx="30.4985" ry="15.6853" fill="#6181B6"/>
<path fill-rule="evenodd" clip-rule="evenodd" d="M39.1737 38.0143L40.6863 30.1087C41.0334 28.3211 40.7358 26.9867 39.8432 26.1559C38.9754 25.3502 37.4876 24.9474 35.3056 24.9474H32.6773L33.4212 21.0198C33.446 20.8687 33.4212 20.7177 33.322 20.5918C33.2228 20.4659 33.0988 20.4155 32.95 20.4155H29.3299C29.0819 20.4155 28.8836 20.5918 28.834 20.8184L27.2223 29.2023C27.0735 28.2456 26.7264 27.4399 26.1313 26.7853C25.0651 25.5516 23.4038 24.9222 21.1474 24.9222H14.1798C13.9319 24.9222 13.7335 25.0984 13.6839 25.325L10.4357 42.3447C10.4109 42.4958 10.4357 42.6468 10.5349 42.7727C10.6341 42.8986 10.758 42.9489 10.9068 42.9489H14.5518C14.7997 42.9489 14.9981 42.7727 15.0477 42.5461L15.8411 38.4423H18.5438C19.9572 38.4423 21.1722 38.2912 22.0896 37.9891C23.0566 37.6618 23.9245 37.1331 24.6931 36.4029C25.313 35.8239 25.8337 35.1693 26.2305 34.4643L25.5858 37.8632C25.561 38.0143 25.5858 38.1653 25.685 38.2912C25.7841 38.4171 25.9081 38.4674 26.0569 38.4674H29.677C29.925 38.4674 30.1234 38.2912 30.1729 38.0646L31.9582 28.7491H34.4378C35.504 28.7491 35.8015 28.9505 35.9007 29.0512C35.9751 29.1268 36.1239 29.4289 35.9503 30.3604L34.5122 37.8884C34.4874 38.0394 34.5122 38.1905 34.6113 38.3164C34.7105 38.4423 34.8345 38.4926 34.9833 38.4926H38.7026C38.9258 38.4171 39.1241 38.2408 39.1737 38.0143ZM22.4119 31.4682C22.1888 32.6516 21.7673 33.5076 21.1474 33.9859C20.5275 34.4643 19.5109 34.7161 18.1719 34.7161H16.5602L17.7256 28.6232H19.8084C21.3457 28.6232 21.9656 28.9505 22.2136 29.2275C22.5359 29.6303 22.6103 30.4108 22.4119 31.4682Z" fill="white"/>
<path fill-rule="evenodd" clip-rule="evenodd" d="M54.6457 26.7852C53.5795 25.5515 51.9182 24.9221 49.6618 24.9221H42.6447C42.3967 24.9221 42.1984 25.0984 42.1488 25.325L38.9005 42.3194C38.8757 42.4705 38.9005 42.6216 38.9997 42.7474C39.0989 42.8733 39.2229 42.9237 39.3717 42.9237H43.0166C43.2646 42.9237 43.4629 42.7474 43.5125 42.5208L44.306 38.417H47.0087C48.422 38.417 49.637 38.2659 50.5544 37.9638C51.5215 37.6365 52.3893 37.1078 53.158 36.3777C53.8027 35.7734 54.3482 35.0936 54.7449 34.3635C55.1416 33.6334 55.4392 32.8277 55.6127 31.9465C56.0343 29.7561 55.7119 28.0441 54.6457 26.7852ZM50.852 31.4681C50.6288 32.6515 50.2073 33.5075 49.5874 33.9858C48.9675 34.4642 47.9509 34.716 46.612 34.716H45.0002L46.1656 28.6231H48.2485C49.7858 28.6231 50.4057 28.9504 50.6536 29.2274C51.0008 29.6302 51.0751 30.4107 50.852 31.4681Z" fill="white"/>
<path fill-rule="evenodd" clip-rule="evenodd" d="M19.8084 28.1195C21.197 28.1195 22.1144 28.3712 22.5855 28.9C23.0567 29.4287 23.1558 30.3099 22.9079 31.5687C22.6599 32.8779 22.164 33.8347 21.4449 34.3885C20.7259 34.9424 19.6349 35.2194 18.1719 35.2194H15.9651L17.3289 28.1195H19.8084ZM10.9316 42.42H14.5766L15.4444 37.9133H18.5687C19.9572 37.9133 21.073 37.7623 21.9657 37.4601C22.8583 37.158 23.6517 36.6797 24.3956 35.9747C25.0155 35.3956 25.5114 34.7662 25.8833 34.0864C26.2553 33.4066 26.528 32.6513 26.6768 31.8205C27.0735 29.8063 26.776 28.2454 25.809 27.1124C24.8419 25.9794 23.3046 25.4255 21.197 25.4255H14.1799L10.9316 42.42Z" fill="#000004"/>
<path fill-rule="evenodd" clip-rule="evenodd" d="M29.3547 20.9189H32.9748L32.107 25.4256H35.3304C37.3636 25.4256 38.7522 25.7781 39.5208 26.5082C40.2895 27.2384 40.5126 28.3965 40.2151 30.0078L38.7026 37.9134H35.0328L36.471 30.3855C36.6445 29.5295 36.5702 28.9504 36.2974 28.6483C36.0247 28.3462 35.4048 28.1699 34.4873 28.1699H31.5863L29.7266 37.9134H26.1064L29.3547 20.9189Z" fill="#000004"/>
<path fill-rule="evenodd" clip-rule="evenodd" d="M48.2489 28.1195C49.6374 28.1195 50.5549 28.3712 51.026 28.9C51.4971 29.4287 51.5963 30.3099 51.3483 31.5687C51.1004 32.8779 50.6045 33.8347 49.8854 34.3885C49.1663 34.9424 48.0753 35.2194 46.6124 35.2194H44.4056L45.7693 28.1195H48.2489ZM39.3721 42.42H43.017L43.8849 37.9133H47.0091C48.3976 37.9133 49.5134 37.7623 50.4061 37.4601C51.2987 37.158 52.0922 36.6797 52.836 35.9747C53.4559 35.3956 53.9518 34.7662 54.3238 34.0864C54.6957 33.4066 54.9685 32.6513 55.1172 31.8205C55.514 29.8063 55.2164 28.2454 54.2494 27.1124C53.2824 25.9794 51.745 25.4255 49.6374 25.4255H42.6203L39.3721 42.42Z" fill="#000004"/>
<defs>
<radialGradient id="paint0_radial_439_1364" cx="0" cy="0" r="1" gradientUnits="userSpaceOnUse" gradientTransform="translate(20.3175 21.9432) scale(90.0218 48.0599)">
<stop stop-color="white"/>
<stop offset="0.5" stop-color="#4C6B97"/>
<stop offset="1" stop-color="#231F20"/>
</radialGradient>
</defs>
</svg>
