<svg width="68" height="66" viewBox="0 0 68 66" fill="none" xmlns="http://www.w3.org/2000/svg">
<g clip-path="url(#clip0_439_1365)">
<path d="M33.6784 0.257812C16.7106 0.257814 17.7702 7.50626 17.7702 7.50626L17.7891 15.0156H33.9811V17.2702H11.3577C11.3577 17.2702 0.5 16.0573 0.5 32.9224C0.499999 49.7876 9.97685 49.1895 9.97685 49.1895H15.6327V41.3634C15.6327 41.3634 15.3278 32.028 24.9582 32.028H41.0178C41.0178 32.028 50.0407 32.1717 50.0407 23.4379V8.99694C50.0407 8.99694 51.4106 0.257812 33.6784 0.257812ZM24.7501 5.3075C26.3611 5.3075 27.6632 6.59013 27.6632 8.17707C27.6632 9.76401 26.3611 11.0466 24.7501 11.0466C23.1392 11.0466 21.8371 9.76401 21.8371 8.17707C21.8371 6.59013 23.1392 5.3075 24.7501 5.3075Z" fill="url(#paint0_linear_439_1365)"/>
<path d="M34.1602 65.7561C51.128 65.7561 50.0684 58.5076 50.0684 58.5076L50.0495 50.9983H33.8575V48.7437H56.4809C56.4809 48.7437 67.3386 49.9566 67.3386 33.0915C67.3386 16.2263 57.8618 16.8244 57.8618 16.8244H52.2059V24.6505C52.2059 24.6505 52.5108 33.9859 42.8804 33.9859H26.8208C26.8208 33.9859 17.798 33.8422 17.798 42.576V57.017C17.798 57.017 16.4281 65.7561 34.1602 65.7561ZM43.0885 60.7064C41.4775 60.7064 40.1754 59.4238 40.1754 57.8368C40.1754 56.2499 41.4775 54.9673 43.0885 54.9673C44.6995 54.9673 46.0015 56.2499 46.0015 57.8368C46.0015 59.4238 44.6995 60.7064 43.0885 60.7064Z" fill="url(#paint1_linear_439_1365)"/>
</g>
<defs>
<linearGradient id="paint0_linear_439_1365" x1="6.92333" y1="6.14921" x2="39.553" y2="38.9428" gradientUnits="userSpaceOnUse">
<stop stop-color="#387EB8"/>
<stop offset="1" stop-color="#366994"/>
</linearGradient>
<linearGradient id="paint1_linear_439_1365" x1="27.254" y1="26.8921" x2="62.3192" y2="60.5425" gradientUnits="userSpaceOnUse">
<stop stop-color="#FFE052"/>
<stop offset="1" stop-color="#FFC331"/>
</linearGradient>
<clipPath id="clip0_439_1365">
<rect width="67" height="66" fill="white" transform="translate(0.5)"/>
</clipPath>
</defs>
</svg>
